<?xml version="1.0" encoding="UTF-8"?>
<svg width="1024" height="1024" version="1.1" viewBox="0 0 270.93 270.93" xmlns="http://www.w3.org/2000/svg">
  <defs>
    <filter id="b" x="-.0015163" y="-.0033119" width="1.003" height="1.0066" color-interpolation-filters="sRGB">
      <feFlood flood-color="rgb(0,0,0)" flood-opacity=".50196" result="flood"/>
      <feComposite in="flood" in2="SourceGraphic" operator="in" result="composite1"/>
      <feGaussianBlur in="composite1" result="blur" stdDeviation="0.5"/>
      <feOffset dx="0" dy="0" result="offset"/>
      <feComposite in="SourceGraphic" in2="offset" result="composite2"/>
    </filter>
    <filter id="a" x="-.0044274" y="-.0070751" width="1.0089" height="1.0142" color-interpolation-filters="sRGB">
      <feFlood flood-color="rgb(0,0,0)" flood-opacity=".74902" result="flood"/>
      <feComposite in="flood" in2="SourceGraphic" operator="in" result="composite1"/>
      <feGaussianBlur in="composite1" result="blur" stdDeviation="0.5"/>
      <feOffset dx="0" dy="0" result="offset"/>
      <feComposite in="SourceGraphic" in2="offset" result="composite2"/>
    </filter>
  </defs>
  <rect width="270.93" height="270.93" fill="#f07e38"/>
  <g fill="#fff">
    <g transform="matrix(.26458 0 0 .26458 2.2611 -20.874)" filter="url(#b)" aria-label="SeP">
      <path d="m113.3 576.73h30.759l6.256 59.953 6.7773 8.8627c15.292 7.9938 34.756 11.991 58.389 11.991 25.372 0 44.835-5.7347 58.389-17.204 13.555-11.817 20.332-26.936 20.332-45.356 0-10.774-2.5859-16.173-6.409-23.125-3.8231-7.2987-13.056-16.794-20.354-22.008-7.2987-5.5609-21.463-14.583-32.237-19.101-10.774-4.8658-13.812-6.6678-28.062-12.924-14.597-6.256-27.457-12.338-38.579-18.247-10.774-5.9084-19.811-12.338-27.109-19.289-7.2987-7.2987-12.86-15.466-16.683-24.503-3.8231-9.384-5.7347-20.332-5.7347-32.844 0-14.597 2.7804-27.978 8.3413-40.143 5.5609-12.512 13.555-23.112 23.981-31.801 10.427-9.0364 23.112-15.988 38.057-20.853s31.628-7.2987 50.048-7.2987c28.847 0 58.389 4.8658 88.627 14.597v80.807h-27.109l-7.82-49.527-7.82-8.8627c-13.207-7.2987-28.847-10.948-46.92-10.948-22.244 0-39.621 5.7347-52.133 17.204s-18.768 26.762-18.768 45.877c0 8.6889 1.564 16.161 4.692 22.417s7.6462 11.991 13.555 17.204c6.256 5.2133 13.902 10.079 22.939 14.597 9.0364 4.1707 19.637 8.8627 31.801 14.076 13.207 5.5609 26.588 11.122 40.143 16.683 13.555 5.5609 26.414 14.25 38.579 26.067 15.292 15.292 22.939 34.408 22.939 57.347 0 15.292-3.128 29.368-9.384 42.228s-15.292 23.981-27.109 33.365c-11.469 9.0364-25.545 16.161-42.228 21.375-16.683 5.2133-35.451 7.82-56.304 7.82-18.768 0-36.146-1.564-52.133-4.692-15.64-2.7804-29.542-6.7773-41.707-11.991z"/>
      <path d="m605.44 652.32q-23.46 15.64-48.484 23.46-24.503 7.82-49.527 7.82-26.067 0-47.441-9.384-21.375-9.384-36.493-26.067-15.119-16.683-23.981-40.143-8.3413-23.981-8.3413-52.655 0-29.716 8.8627-53.697 8.8627-24.503 25.024-41.707 16.161-17.725 38.057-27.109 22.417-9.9053 48.484-9.9053 42.749 0 68.295 27.109 25.545 27.109 25.545 75.593 0 4.1707 0 8.3413 0 3.6493-0.52134 7.82h-168.91v5.7347q0 50.569 23.981 78.721 23.981 27.631 63.603 27.631 19.811 0 39.621-7.2987 19.811-7.82 42.228-22.939zm-46.399-140.76q0-31.801-14.076-48.484-13.555-16.683-40.143-16.683-12.512 0-23.981 5.2133t-20.853 15.119q-8.8627 9.384-14.597 22.939-5.7347 13.555-6.7773 30.237h120.43z"/>
      <path d="m645.06 657.53 29.716-2.6067 8.8627-7.2987v-287.25l-8.8627-7.2987-33.887-3.128v-20.853h118.86q37.536 0 64.645 5.7347 27.631 5.2133 45.356 17.725 17.725 12.512 26.067 32.844 8.8627 20.332 8.8627 50.048 0 25.024-9.384 45.877-9.384 20.332-27.109 35.451-17.204 14.597-42.228 22.939-25.024 7.82-56.304 7.82-7.2987 0-17.204-0.52133-9.9053-1.0427-21.896-2.0853v102.7l8.8627 7.2987 37.015 2.6067v21.375h-131.38zm85.499-137.63q11.469 1.0427 19.811 2.0853 8.8627 0.52133 14.597 0.52133 44.835 0 67.773-22.417 23.46-22.417 23.46-65.688 0-42.228-23.981-61.517-23.981-19.811-74.551-19.811-6.256 0-13.033 0-6.7773 0-14.076 1.0427z"/>
    </g>
    <g aria-label="Solvay - Entraide et Publications">
      <path transform="scale(.26458)" d="m592.29 687.2c-7.56 0.288-13.248 8.0628-13.248 18.215 0 2.16 0.28897 4.3927 0.79297 6.5527-2.592 2.592-4.9682 5.0395-6.4082 7.2715-1.656 2.592-2.5195 5.2571-2.5195 7.7051 0 5.256 3.9599 9.1426 9.5039 9.1426 3.888 0 7.9201-1.7992 11.664-4.5352 3.888 2.736 7.9195 4.248 11.52 4.248 4.248 0 7.6322-2.0166 9.5762-5.9766l-0.14454 0.0723s-2.9518 2.5195-7.3438 2.5195c-2.952 0-6.4071-1.6552-9.2871-4.5352-0.072 0-0.21706-0.0728-0.28906-0.2168 2.592-3.024 3.7444-5.9031 3.8164-9.2871 0-3.024-1.1516-5.8318-3.5996-8.4238v0.0703c0.72 0.864 1.0801 1.944 1.0801 3.168 0 2.952-1.9451 6.9124-4.5371 10.152-0.072 0-0.28738 0.28932-0.35938 0.36132l-0.14453-0.21679c-2.16-2.808-3.8151-6.0479-5.0391-9.5039l-0.14453-0.57617c3.816-3.312 7.1273-6.4797 9.8633-12.096 1.296-2.664 1.9453-5.1112 1.9453-7.1992 0-4.176-2.5933-6.9121-6.6973-6.9121zm-484.52 1.6387c-10.152 0-18.289 6.9122-18.289 16.992 0 2.088 0.36034 4.3193 1.1523 6.6953 1.296 4.176 4.4646 8.0652 7.0566 11.449 2.736 3.456 4.5352 7.5599 4.5352 11.088 0 4.248-2.52 7.6322-9 7.9922-4.248 0-8.0645-3.8887-8.0645-9.7207 0-4.536 2.3771-8.999 6.1211-9.791-1.728-0.792-3.312-1.0801-4.752-1.0801-5.472 0-8.7129 4.8241-8.7129 10.08 0 8.064 6.9128 13.248 15.049 13.248 8.064 0 16.344-4.8977 16.344-13.178-0.432-7.344-4.1036-11.52-8.3516-16.92-2.88-3.672-4.0332-7.2717-4.0332-10.512 0-8.136 7.4172-13.967 13.033-13.967 2.664 0 4.248 1.584 4.248 4.752 0 5.832-4.8234 14.904-9.3594 14.904h-0.2168c1.584 0.792 3.1674 1.1504 4.6074 1.1504 6.408 0 11.16-6.9118 11.16-13.176 0-4.464-2.3756-8.5684-8.3516-9.6484-1.44-0.288-2.8078-0.35938-4.1758-0.35938zm552.02 0.0156c-4.176 0-8.4229 1.0808-11.879 2.8809-9.72 4.968-14.688 15.481-14.688 21.889 0 3.096 1.2236 5.2559 3.5996 5.2559 0.792 0 1.7989-0.21697 2.8789-0.79297 0.72001-7.416 3.6015-17.567 9.9375-22.967 2.808-2.376 6.5504-3.8887 10.15-3.8887 5.976 0 9.793 4.4639 9.793 11.088 0 10.944-10.152 21.096-21.096 21.096h-0.14453c7.128-19.44 9.6484-24.407 9.6484-25.631 0-1.08-0.64799-1.584-1.584-1.584-1.512 0-3.7439 1.2236-5.2559 3.5996-1.296 2.088-5.905 11.808-9.793 22.104l-0.43165-0.14453c-0.504 0-0.79296 0.50408-0.79296 1.0801 0 0.432 0.14559 0.93688 0.43359 1.2969-2.808 7.704-4.3922 13.608-4.8242 18.504 0 1.368 1.9441 3.3828 3.7441 3.3828 1.008 0 2.0153-0.64806 2.4473-2.6641 0.792-3.816 3.0249-10.44 5.5449-17.424l1.8711 0.0723c9.216 0 22.967-3.5989 26.783-16.631 0.504-1.656 0.7207-3.3848 0.7207-4.9688 0-8.856-6.9124-15.553-17.064-15.553zm-311.06 0.14453c-9.792 0-17.928 7.4874-17.928 15.191 0 4.32 2.5917 8.7851 8.9277 11.953h-1.2969c-11.52 0-18.215 8.4238-18.215 16.344 0 7.344 4.8958 12.745 15.84 13.393 9.7164 0 18.829-7.208 24.805-15.453-0.41346 1.6563-0.78919 3.3006-1.0625 4.8691v0.28711c0 1.368 1.9439 3.3125 3.6719 3.3125 0.792 0 1.5839-0.43172 2.0879-1.5117 1.944-5.76 14.184-24.265 20.016-27.721-2.304 4.032-8.7832 16.416-8.7832 23.76 0 3.24 1.2948 5.6172 4.9668 5.6172 0.504 0 1.0805-0.0725 1.7285-0.14453 3.395-0.42974 7.5011-4.9882 10.74-9.4824-0.29082 1.4103-0.46289 2.747-0.46289 3.9375 0 3.384 1.2968 5.6894 4.9688 5.6894 0.504 0 1.0802-0.0725 1.6562-0.14453 3.4467-0.43629 7.6536-5.1279 10.936-9.6875-0.54817 2.0701-1.0386 4.135-1.3789 6.0879v0.28711c0 1.368 1.9458 3.3125 3.6738 3.3125 0.936 0 1.871-0.57642 2.375-2.2324 2.16-5.4 12.456-23.472 18.432-26.928-2.088 3.24-3.0234 5.6155-3.0234 7.2715 0 2.304 1.6555 3.3125 4.1035 3.3125 1.08 0 2.2333-0.14391 3.5293-0.50391-0.648-0.144-0.86524-0.72025-0.86524-1.6562 0-3.384 2.4492-7.6317 2.4492-8.9277 0-1.728-1.6561-2.5918-3.7441-2.5918-5.112 0.288-11.809 8.6401-18.361 20.664 3.744-11.664 6.8398-17.712 6.8398-19.08 0-1.08-0.64799-1.584-1.584-1.584-1.512 0-3.7439 1.2236-5.2559 3.5996-1.1809 1.8665-3.0422 6.1317-4.7832 11.123-2.1562 3.6034-9.7593 14.725-12.334 14.725-0.504-0.144-0.7207-0.21546-0.7207-1.4395 0-5.76 7.7772-25.273 11.449-34.633h2.7344c0.576 0 1.0098-0.93625 1.0098-1.6562 0-0.288-0.0731-0.57475-0.28906-0.71875-0.216-0.072-1.1515-0.14453-2.5195-0.14453l2.0879-5.1836c0.288-0.72 0.43164-1.2245 0.43164-1.7285 0-1.008-0.64799-1.5117-1.584-1.5117-1.512 0-3.7436 1.2236-5.1836 3.5996-0.504 0.72-1.4398 2.4485-2.5918 4.8965l-3.5996 0.0723c-0.432 0.072-0.79297 1.0805-0.79297 1.7285 0 0.36 0.14338 0.64648 0.35938 0.64648h2.9531c-2.6224 5.797-6.093 14.036-8.5332 21.621-2.3102 3.8738-9.6094 14.451-12.186 14.451-0.504-0.144-0.71875-0.21492-0.71875-1.2949 0-4.608 5.9751-19.945 7.7031-24.049 0.216-0.576 0.35937-1.0797 0.35937-1.5117 0-1.8-1.727-2.5918-3.959-2.5918-5.04 0.144-13.176 10.007-19.656 21.383 3.672-11.952 7.0566-18.431 7.0566-19.871 0-1.008-0.64798-1.5117-1.584-1.5117-1.512 0-3.7439 1.2236-5.2559 3.5996-1.216 1.9221-3.1531 6.3918-4.9375 11.576-4.6838 9.2475-14.491 21.4-25.43 21.4-0.936 0-1.8726-0.0731-2.8086-0.28906-4.896-1.008-7.127-5.183-7.127-9.791 0-6.264 4.2473-13.176 11.447-13.176 1.944 0 4.0319 0.50399 6.3359 1.584 0.288 0.144 0.57696 0.21484 0.79296 0.21484 1.152 0 1.7988-1.4394 1.7988-3.0234 0-2.088-1.008-4.5368-3.168-4.9688-5.04-1.008-6.9824-3.8877-6.9824-7.3437 0-6.48 7.2719-14.76 14.256-14.76 0.576 0 1.1506 5.3e-4 1.7266 0.14453 1.152 0.216 1.584 1.2963 1.584 2.7363 0 4.968-5.5424 14.832-10.15 14.832l-0.50391-0.0723c1.368 1.944 3.0945 2.7363 4.8945 2.7363 5.4 0 11.377-7.4882 11.377-13.824 0-3.312-1.5852-6.2636-5.6172-7.8476-2.376-0.936-4.823-1.3691-7.127-1.3691zm-188.95 0.0723c-1.512 0-3.7455 1.2236-5.1855 3.5996-1.656 2.592-8.4954 17.281-12.527 29.953-1.44 3.744-2.5195 7.7026-2.5195 10.727 0 3.384 1.2968 5.6894 4.9688 5.6894 0.504 0 1.0783-0.0725 1.6543-0.14453 3.9482-0.49352 8.7736-6.4105 12.16-11.443-0.0484 0.63176-0.082 1.2574-0.082 1.8672 0 5.832 2.0878 9.6487 8.4238 9.7207 9.432 0 21.672-18.72 21.672-29.664 0-3.96-1.6552-6.8403-5.6152-7.4883 0.144 0.576 0.14453 1.1508 0.14453 1.7988 0 10.008-11.809 32.328-15.697 32.328-1.368-0.144-1.8711-1.6544-1.8711-4.3184 0-6.984 4.032-20.16 4.752-21.816 0.288-0.72 0.43164-1.2965 0.43164-1.7285 0-1.008-0.64799-1.5117-1.584-1.5117-1.512 0-3.7439 1.2234-5.2559 3.5274-1.1959 1.9134-3.1678 6.5671-4.3691 11.582-2.4445 3.974-9.6182 14.338-12.102 14.338-0.504-0.144-0.71875-0.21519-0.71875-1.3672 0-2.016 1.079-5.9763 2.375-10.152 6.624-19.296 12.602-32.472 12.602-33.912 0-1.08-0.64825-1.584-1.6562-1.584zm368.91 0c-1.512 0-3.7439 1.2236-5.2559 3.5996-0.648 1.152-4.1032 9.3602-7.1992 16.992-1.584-2.376-4.6808-3.4551-7.6328-3.4551-4.68 0-8.7119 2.3024-12.672 10.15-0.62285 1.1864-1.3366 2.9745-1.9688 5.0117-2.1025 3.6111-9.7011 14.717-12.342 14.717-0.504-0.144-0.71875-0.21492-0.71875-1.2949 0-6.408 8.4961-24.841 8.4961-26.641 0-1.008-0.64799-1.5117-1.584-1.5117-1.512 0-3.7439 1.2234-5.2559 3.5274-1.1539 1.8303-3.6468 6.4336-5.6484 11.436-2.3412 3.8429-9.6714 14.484-12.189 14.484-0.504-0.144-0.7207-0.21519-0.7207-1.3672 0-6.552 8.4961-24.768 8.4961-26.568 0-1.008-0.64825-1.5117-1.6562-1.5117-1.728 0-3.6721 1.2961-5.3281 3.7441-1.44-2.808-4.7524-4.1758-8.0645-4.1758-4.68 0-8.7119 2.3024-12.672 10.15-1.512 2.88-3.5996 9.2164-3.5996 14.4 0 4.464 1.5117 7.9202 6.2637 7.9922 3.384 0 6.9135-4.0309 9.9375-8.7109-0.216 1.152-0.36133 2.2322-0.36133 3.2402 0 3.384 1.369 5.7598 5.041 5.7598l1.6562-0.14453c3.405-0.42562 7.4812-4.9016 10.713-9.3535-0.26772 1.3266-0.43555 2.5961-0.43555 3.7383 0 3.384 1.3671 5.7598 5.0391 5.7598l1.6562-0.14453c3.7954-0.48043 8.4876-6.1031 11.854-11.045-0.12136 0.98802-0.20703 1.9684-0.20703 2.9082 0 4.464 1.5117 7.9202 6.2637 7.9922 3.528 0 7.2011-4.3911 10.369-9.2871-0.288 1.368-0.43359 2.7347-0.43359 3.8867 0 3.384 1.2968 5.6894 4.9688 5.6894 0.504 0 1.0802-0.0725 1.6562-0.14453 3.8599-0.48859 8.645-6.2931 12.043-11.293-9e-3 0.23623-0.0371 0.47374-0.0371 0.70899 0 7.128 3.8154 10.368 9.3594 10.512 9.072 0 15.12-10.009 18.936-17.137l0.0723-0.28711c0-0.504-0.71919-1.0801-1.3672-1.0801-0.216 0-0.50444 0.0714-0.64844 0.35937-2.016 3.744-9.1438 14.977-14.76 14.977-2.664 0-4.0323-1.8004-4.3203-6.9844 0-0.864 0.0728-1.7281 0.2168-2.6641v-0.0723c4.968-0.864 14.832-7.0552 14.832-13.535 0-2.88-2.0878-5.7598-5.7598-5.7598-6.1916 0-12.904 7.084-15.469 15.129-2.4576 3.9905-9.6111 14.318-12.09 14.318-0.504-0.144-0.7207-0.21519-0.7207-1.3672 0-6.984 14.832-42.264 14.832-44.064 0-1.08-0.64798-1.584-1.584-1.584zm200.61 0c-1.512 0-3.7439 1.2236-5.2559 3.5996-1.5835 2.503-8.1529 16.557-12.18 29.018-2.4026 3.9211-9.639 14.398-12.137 14.398-0.50401-0.144-0.72071-0.21519-0.72071-1.3672 0-6.48 8.4238-24.768 8.4238-26.568 0-1.008-0.64798-1.5117-1.584-1.5117-1.512 0-3.7436 1.2234-5.1836 3.5274-1.08 1.728-3.3119 5.9037-5.2559 10.512-1.512 2.808-9.9361 15.408-12.744 15.408-0.504-0.144-0.7207-0.21519-0.7207-1.3672 0-6.48 8.4238-24.768 8.4238-26.568 0-1.008-0.64799-1.5117-1.584-1.5117-1.512 0-3.7436 1.2234-5.1836 3.5274-2.088 3.312-8.6406 15.768-8.6406 23.184 0 3.384 1.369 5.6894 5.041 5.6894l1.6562-0.14453c3.456-0.432 7.6314-5.1124 10.943-9.6484-0.288 1.512-0.50391 2.8798-0.50391 4.1758 0 3.312 1.2968 5.6172 4.9688 5.6172 0.504 0 1.0783-0.0725 1.6543-0.14453 3.5231-0.44039 7.7682-5.2168 11.049-9.8164-0.53716 2.2799-0.92385 4.4029-1.0586 6.2168v0.28711c0 1.296 1.9439 3.3125 3.6719 3.3125 1.08 0 2.0172-0.64806 2.4492-2.6641 0-0.072 2.6e-4 -0.1448 0.0723-0.2168 1.656 1.872 4.391 2.7363 7.127 2.7363 4.752 0 8.6396-2.3763 12.6-10.152 1.512-2.88 3.6016-9.1424 3.6016-14.398 0-4.32-1.5134-7.9202-6.1934-7.9922-3.6 0-7.4162 4.5348-10.656 9.7188 6.696-18.432 9.5039-24.047 9.5039-25.271 0-1.08-0.64798-1.584-1.584-1.584zm28.422 0c-1.512 0-3.7436 1.2236-5.1836 3.5996-1.656 2.592-8.4953 17.281-12.527 29.953-1.44 3.744-2.5195 7.7026-2.5195 10.727 0 3.384 1.2948 5.6894 4.9668 5.6894 0.504 0 1.0802-0.0725 1.6562-0.14453 3.4045-0.42557 7.4814-4.9002 10.713-9.3516-0.26746 1.3259-0.43554 2.5947-0.43554 3.7363 0 3.384 1.369 5.7598 5.041 5.7598l1.6562-0.14453c3.835-0.48545 8.583-6.2192 11.955-11.197-0.0126 0.27716-0.0215 0.55465-0.0215 0.83007 0 5.76 2.9526 10.367 10.225 10.367h0.28711c5.4818-0.10151 10.42-5.534 13.996-10.9-0.11052 0.93882-0.18945 1.8697-0.18945 2.7637 0 4.464 1.5117 7.9202 6.2637 7.9922 3.384 0 6.9115-4.0309 9.9356-8.7109-0.21601 1.152-0.35938 2.2322-0.35938 3.2402 0 3.384 1.3671 5.7598 5.0391 5.7598l1.6562-0.14453c3.4404-0.43005 7.5672-4.9949 10.814-9.4922-0.29205 1.4138-0.46485 2.7541-0.46485 3.9473 0 3.384 1.2968 5.6894 4.9688 5.6894 0.504 0 1.0802-0.0725 1.6562-0.14453 3.3723-0.42687 7.471-4.9278 10.721-9.3926-0.27259 1.341-0.44335 2.6239-0.44335 3.7774 0 3.384 1.369 5.7598 5.041 5.7598l1.6562-0.14453c3.5013-0.4432 7.7894-5.2778 11.076-9.9043-0.0506 0.54538-0.0781 1.0895-0.0781 1.625 0 4.392 1.8712 8.135 7.1992 8.207 8.28 0 15.264-12.312 15.264-21.744 0-6.048-2.5915-10.152-8.8555-10.512-1.944 0-4.1046 0.64736-5.9766 1.9434-2.16 1.44-3.959 3.601-3.959 5.041 0 1.512 1.5826 2.3027 3.3106 2.3027 1.224 0 2.5202-0.43146 3.2402-1.4395 0.576-1.224 2.448-2.2324 4.248-2.2324 2.736 0.072 3.8887 2.8807 3.8887 6.5527 0 7.056-4.2484 17.352-9.6484 17.352-1.728-0.072-2.375-0.93624-2.375-3.2402 0-4.176 2.9512-11.087 4.5352-12.527l0.14453-0.7207c0-1.656-1.9444-2.375-3.8164-2.375-1.512 0-3.0248 0.50371-3.3848 1.5117-0.62708 0.80624-1.2241 1.8519-1.7617 3.0195-2.3953 3.979-9.568 14.332-12.115 14.332-0.504-0.144-0.7207-0.21492-0.7207-1.2949 0-6.408 8.4961-24.841 8.4961-26.641 0-1.008-0.64799-1.5117-1.584-1.5117-1.512 0-3.7438 1.2234-5.2559 3.5274-1.1543 1.831-3.6484 6.4372-5.6504 11.441-2.3453 3.8482-9.6708 14.479-12.188 14.479-0.504-0.144-0.7207-0.21546-0.7207-1.4395 0-5.76 7.7772-25.273 11.449-34.633h2.7363c0.576 0 1.0078-0.93625 1.0078-1.6562 0-0.288-0.0731-0.57475-0.28906-0.71875-0.216-0.072-1.1515-0.14453-2.5195-0.14453l2.0879-5.1836c0.288-0.72 0.43164-1.2245 0.43164-1.7285 0-1.008-0.64799-1.5117-1.584-1.5117-1.512 0-3.7436 1.2236-5.1836 3.5996-0.504 0.72-1.4398 2.4485-2.5918 4.8965l-3.5996 0.0723c-0.432 0.072-0.79296 1.0805-0.79296 1.7285 0 0.36 0.14337 0.64648 0.35937 0.64648h2.9531c-2.616 5.7827-6.0763 13.995-8.5156 21.564-2.3246 3.8216-9.6797 14.508-12.203 14.508-0.504-0.144-0.71875-0.21519-0.71874-1.3672 0-6.552 8.4961-24.768 8.4961-26.568 0-1.008-0.64825-1.5117-1.6562-1.5117-1.728 0-3.6721 1.2961-5.3281 3.7441-1.44-2.808-4.7524-4.1758-8.0644-4.1758-4.68 0-8.7119 2.3024-12.672 10.15-0.62464 1.1898-1.3412 2.9848-1.9746 5.0293-2.6112 4.5959-9.212 14.268-14.424 14.268-3.024-0.144-4.3203-2.6636-4.3203-6.7676 0-6.624 3.8892-16.056 9.8652-18.576 0.576-0.216 1.2954-0.35938 1.9434-0.35938 1.44 0 2.8809 0.57447 2.8809 2.2305 0 0.864-0.79297 2.0889-0.79297 2.8809 0 0.648 0.43155 0.93555 0.93555 0.93555 1.584 0 2.1602-3.0949 2.1602-4.4629 0-3.24-2.6626-4.8242-5.9746-4.8242-7.2656 0-14.13 6.8818-16.908 14.715-2.1496 3.6713-9.6799 14.66-12.307 14.66-0.504-0.144-0.7207-0.21492-0.7207-1.2949 0-6.408 8.4961-24.841 8.4961-26.641 0-1.008-0.64798-1.5117-1.584-1.5117-1.512 0-3.7439 1.2234-5.2559 3.5274-1.1544 1.831-3.6484 6.4372-5.6504 11.441-2.3454 3.8482-9.6708 14.479-12.188 14.479-0.504-0.144-0.71875-0.21519-0.71875-1.3672 0-2.016 1.079-5.9763 2.375-10.152 6.624-19.296 12.6-32.472 12.6-33.912 0-1.08-0.64825-1.584-1.6562-1.584zm-165.58 0.14453c1.8 0 2.8066 0.71918 2.8066 2.9512 0 1.8-0.79127 4.1053-2.4473 6.6973-1.008 1.656-5.112 5.8308-7.416 8.1348v-0.0723c0-3.528 0.35981-6.9122 1.0078-9.5762 1.44-5.472 4.1768-7.7748 6.0488-8.1348zm-99.072 3.5274c-1.512 0-3.6 1.2236-4.752 3.5996-0.36 0.648-0.86514 1.7294-1.3691 3.0254-0.144 0.36-0.21485 0.64781-0.21485 1.0078 0 1.296 1.1518 2.0879 2.5918 2.0879 1.368 0 2.8804-0.79206 3.8164-2.6641 0.432-0.936 1.2957-3.3124 1.5117-3.8164 0.144-0.504 0.28711-1.0072 0.28711-1.3672 0-1.224-0.7911-1.873-1.8711-1.873zm280.4 0c-1.512 0-3.6 1.2236-4.752 3.5996-0.36 0.648-0.86318 1.7294-1.3672 3.0254-0.14401 0.36-0.2168 0.64781-0.2168 1.0078 0 1.296 1.1538 2.0879 2.5938 2.0879 1.368 0 2.8784-0.79206 3.8144-2.6641 0.432-0.936 1.2957-3.3124 1.5117-3.8164 0.144-0.504 0.28906-1.0072 0.28906-1.3672 0-1.224-0.79304-1.873-1.873-1.873zm92.736 0c-1.512 0-3.6 1.2236-4.752 3.5996-0.36 0.648-0.86319 1.7294-1.3672 3.0254-0.144 0.36-0.21679 0.64781-0.21679 1.0078 0 1.296 1.1518 2.0879 2.5918 2.0879 1.368 0 2.8804-0.79206 3.8164-2.6641 0.432-0.936 1.2957-3.3124 1.5117-3.8164 0.144-0.504 0.28906-1.0072 0.28906-1.3672 0-1.224-0.79305-1.873-1.873-1.873zm-661.03 13.465c-4.68 0-8.7119 2.3024-12.672 10.15-1.512 2.88-3.5996 9.2164-3.5996 14.4 0 4.464 1.5117 7.9202 6.2637 7.9922 3.384 0 6.9135-4.0309 9.9375-8.7109-0.216 1.152-0.36133 2.2322-0.36133 3.2402 0 3.384 1.369 5.7598 5.041 5.7598l1.6562-0.14453c3.3761-0.42201 7.4124-4.8259 10.631-9.2402-0.26206 1.3127-0.42578 2.5662-0.42578 3.6953 0 3.384 1.2968 5.6894 4.9688 5.6894 0.504 0 1.0802-0.0725 1.6562-0.14453 3.456-0.432 7.7034-5.1124 10.943-9.6484-1.44 4.464-3.0253 9.1452-5.1133 14.617-12.312 8.424-16.848 16.992-16.848 22.104 0 3.024 1.5855 4.8965 4.1055 4.8965 5.112 0 14.111-7.6322 21.527-28.656 10.08-6.408 15.623-16.272 17.855-20.664l0.0723-0.28906c0-0.504-0.72088-0.93555-1.2969-0.93555-0.36 0-0.64701 0.0714-0.79101 0.35937-4.68 7.848-11.016 15.624-14.328 16.92 1.44-4.32 2.6641-8.5668 3.7441-12.383 2.088-7.272 3.0248-10.08 4.9688-15.336 0.288-0.648 0.35938-1.1522 0.35938-1.6562 0-1.08-0.72025-1.584-1.6562-1.584-1.512 0-3.6711 1.2234-5.0391 3.5274-1.008 1.728-3.024 5.8314-4.752 10.439v0.0723c-1.44 2.736-9.9361 15.408-12.744 15.408-0.504-0.144-0.7207-0.21519-0.7207-1.3672 0-6.408 8.4961-24.768 8.4961-26.568 0-1.008-0.64798-1.5117-1.584-1.5117-1.512 0-3.7439 1.2234-5.2559 3.5274-1.1622 1.8435-3.665 6.5341-5.6738 11.598-2.4547 3.9868-9.612 14.322-12.092 14.322-0.504-0.144-0.7207-0.21519-0.7207-1.3672 0-6.552 8.4961-24.768 8.4961-26.568 0-1.008-0.64825-1.5117-1.6562-1.5117-1.728 0-3.6721 1.2961-5.3281 3.7441-1.44-2.808-4.7525-4.1758-8.0645-4.1758zm-75.186 0.35938c-1.944 0-4.1026 0.64736-5.9746 1.9434-2.16 1.44-3.9609 3.601-3.9609 5.041 0 1.512 1.5845 2.3027 3.3125 2.3027 1.224 0 2.5202-0.43146 3.2402-1.4395 0.576-1.224 2.448-2.2324 4.248-2.2324 2.736 0.072 3.8867 2.8807 3.8867 6.5527 0 7.056-4.2465 17.352-9.6465 17.352-1.728-0.072-2.377-0.93624-2.377-3.2402 0-4.176 2.9512-11.087 4.5352-12.527l0.14453-0.7207c0-1.656-1.9444-2.375-3.8164-2.375-1.512 0-3.0228 0.50371-3.3828 1.5117-2.016 2.592-3.8164 7.4888-3.8164 11.881 0 4.392 1.8712 8.135 7.1992 8.207 8.28 0 15.266-12.312 15.266-21.744 0-6.048-2.5934-10.152-8.8574-10.512zm770.96 0.0723c-1.512 0-3.7439 1.2236-5.2559 3.5996-2.232 3.528-6.9124 15.553-8.5684 25.057v0.28711c0 1.368 1.9439 3.3125 3.6719 3.3125 0.792 0 1.5839-0.43172 2.0879-1.5117 1.944-5.76 14.184-24.265 20.016-27.721-2.304 4.032-8.7832 16.416-8.7832 23.76 0 3.24 1.2968 5.6172 4.9688 5.6172 0.504 0 1.0786-0.0725 1.7266-0.14453 2.1253-0.26903 4.5324-2.1581 6.8301-4.6348 0.0891 2.7396 3.2543 4.496 9.7129 4.9219 5.328 0 10.871-2.3762 10.871-9.5762v-0.57422c4.176-0.576 8.4974-3.1697 10.441-7.3457l0.0703-0.21485c0-0.504-0.71919-1.1523-1.3672-1.1523-0.216 0-0.43243 0.14337-0.64843 0.35937-1.872 3.816-5.9035 5.5446-8.8555 5.9766l-0.14453 0.0723c-1.368-5.04-2.5195-8.425-2.5195-10.873 0-0.576 0.0728-1.08 0.2168-1.584 0.216-0.72 0.79127-2.0156 2.4473-2.0156 0.792 0 1.9449 0.7207 2.8809 0.7207 1.368 0 2.2305-1.4411 2.2305-2.9531 0-1.44-0.79091-2.88-2.8789-3.168-0.864-0.144-1.6572-0.14258-2.4492-0.14258-5.04 0-8.1347 2.3755-10.223 7.2715-1.224 2.736-2.5215 6.1201-4.1055 8.4961l0.0723 0.0391c-2.7693 4.4157-9.2525 13.568-11.645 13.568-0.504-0.144-0.7207-0.21492-0.7207-1.2949 0-4.608 5.9751-19.945 7.7031-24.049 0.216-0.576 0.36133-1.0797 0.36133-1.5117 0-1.8-1.7289-2.5918-3.9609-2.5918-5.04 0.144-13.176 10.007-19.656 21.383 3.672-11.952 7.0566-18.431 7.0566-19.871 0-1.008-0.64798-1.5117-1.584-1.5117zm-693.25 1.7988c1.728 0 3.456 1.1525 4.752 3.3125l-2.0879 3.8887-0.0723 0.28711c-3.6 7.128-10.8 20.16-13.824 20.16h-0.0723c-0.504-0.072-0.7207-0.86442-0.7207-2.2324 0-6.696 5.4734-25.416 12.025-25.416zm252.27 0c1.728 0 3.456 1.1525 4.752 3.3125l-2.0879 3.8887-0.0723 0.28711c-3.6 7.128-10.8 20.16-13.824 20.16h-0.0723c-0.504-0.072-0.7207-0.86442-0.7207-2.2324 0-6.696 5.4734-25.416 12.025-25.416zm51.154 0c1.584 0 3.1688 0.93659 4.4648 2.8086l-1.9434 4.752c-2.448 5.328-10.728 20.088-13.752 20.088h-0.0723c-0.504-0.072-0.7207-0.86442-0.7207-2.2324 0-6.12 5.3274-25.416 12.023-25.416zm305.01 0c1.728 0 3.456 1.1525 4.752 3.3125l-2.0879 3.8887-0.0723 0.28711c-3.6 7.128-10.8 20.16-13.824 20.16h-0.0703c-0.504-0.072-0.72071-0.86442-0.72071-2.2324 0-6.696 5.4714-25.416 12.023-25.416zm-85.463 0.43359c0.576 0 0.86328 0.719 0.86328 2.375 0 6.336-5.4717 25.344-12.096 25.344-1.44 0-2.8795-0.791-4.1035-2.375 0.36-1.512 0.86372-3.169 1.5117-5.041v-0.0723c2.448-5.328 10.8-20.23 13.824-20.23zm-443.75 1.3672c-3.528 0-7.199 0.28861-9.791 1.2246-0.504 0.144-1.0801 1.0791-1.0801 1.8711 0 0.576 0.28834 1.0801 1.1523 1.0801l0.57422-0.0723c2.664-0.504 7.704-0.57618 12.168-0.57618 6.12 0 8.4245 0.14454 9.1445 0.14454 0.792 0 1.0801-0.28844 1.0801-0.64844 0-1.296-1.656-3.0234-13.248-3.0234zm258.03 0.64844c1.44 0 2.0879 1.0787 2.0879 2.3027 0 4.392-8.5672 9.4334-11.951 10.441l0.2168-0.64844c0.792-2.448 2.304-5.9761 4.248-8.4961 2.088-2.592 4.0304-3.5996 5.3984-3.5996zm383.27 6.7676c0.864 4.248 2.5209 8.7834 2.8809 10.439-2.016 0.36-4.5356 0.57581-6.7676 1.0078-1.3006 0.25173-2.3889 0.61762-3.3106 1.0469 2.431-3.2771 4.4434-6.6432 5.416-8.4629l0.0332-0.13477c0.78568-1.4885 1.3444-2.7864 1.748-3.8965zm-346.16 0.57617c1.8 3.888 3.5269 7.3433 6.0469 9.8633 0 0.072-0.0723 0.0723-0.0723 0.0723-3.168 2.52-6.9122 4.0332-9.5762 4.0332-2.232 0-3.6719-1.0091-3.6719-2.9531 0-1.656 1.0817-4.1753 3.0977-6.6953 1.08-1.44 3.8158-4.0323 4.1758-4.3203zm349.69 12.312c0.216 0.72 0.28711 1.3674 0.28711 1.9434 0 3.096-2.6647 4.1758-5.4727 4.1758-2.952 0-5.9746-1.2238-5.9746-2.5918 0-0.864 1.079-1.7273 3.959-2.4473 2.736-0.648 6.1212-0.79208 7.2012-1.0801zm-699.8 18.791-0.0723 0.2168c-5.112 12.6-9.5775 17.207-11.521 17.207-0.576 0-0.93554-0.50318-0.93554-1.3672 0-2.736 3.3845-9.1438 12.312-15.84z" aria-label="Solvay - Entraide et Publications"/>
    </g>
    <path transform="scale(.26458)" d="m607.06 265.33-144 7.7531c-1.0455 0.0527-2.0686 0.32279-3.0039 0.79297l-123.3 61.598c-0.40904 0.2072-0.2942 0.82017 0.16211 0.86524l52.317 5.3446c1.5606 5.8226 4.4251 17.546 5.3496 23.779-1.2612 1.2173-2.0469 2.9251-2.0469 4.8164 1e-5 2.7799 1.6948 5.1642 4.1074 6.1758 5.3345 7.1004 7.3954 18.83 8.6836 26.303 1.1751 6.8168 2.3864 13.761 2.9746 20.029 0.19155 2.0413 0.29824 7.7373 1.5762 9.3438 5.6083 7.05 19.42-0.54114 19.9-7.7715 0.22692-3.4183-4.9518-13.004-12.889-26.633-5.1623-8.8646-11.412-21.308-11.721-24.357 0.48186-0.92434 0.75391-1.9753 0.75391-3.0898 1e-5 -3.5075-2.697-6.3846-6.1309-6.6699-2.566-7.1512-5.1271-17.422-5.4258-21.428l25.918 2.5078c0.35623 0.0345 0.66989 0.35087 0.70507 0.70703 1.0543 10.672 4.7183 25.809 6.0645 30.648 0.23468 0.84378 0.70616 2.1852 1.0664 2.9844 3.1544 6.9973 9.6335 11.755 16.463 12.924 0.86396 0.14783 2.2819 0.26958 3.1562 0.33399 11.732 0.86414 28.303 0.14092 50.541-4.5762 0.85767-0.18192 2.2484-0.48363 3.1016-0.68554 16.716-3.9561 33.851-12.998 44.197-20.361 0.7143-0.50836 1.8592-1.3508 2.5391-1.9043 5.5798-4.5421 8.9406-10.534 8.3384-17.524-0.0307-0.35656-0.13777-0.92528-0.22851-1.2715-3.0116-11.491-8.1268-22.239-12.102-34.605-0.10927-0.33994 0.0392-0.78246 0.33203-0.98828l62.889-44.209c0.37388-0.26498 0.17062-0.85401-0.28711-0.83203z" filter="url(#a)"/>
  </g>
</svg>
