<svg id="egxmW4z6eq51" xmlns="http://www.w3.org/2000/svg" xmlns:xlink="http://www.w3.org/1999/xlink" viewBox="0 0 479.6 390" shape-rendering="geometricPrecision" text-rendering="geometricPrecision"><g id="egxmW4z6eq52"><g transform="matrix(.92 0 0 0.92 102.4 11.92)"><g transform="translate(0-6)"><rect width="190" height="390" rx="8" ry="8" transform="translate(220 10)" fill="#3e4b65" stroke-width="0"/><path d="M407.400002,10C411.597368,10,415,13.675976,415,18.210526v373.578948C415,396.324024,411.597368,400,407.400002,400L320,400v-390h87.400002Z" transform="matrix(-1 0 0-1 635 410)" fill="#3a4761" stroke-width="0"/><path d="M0,270L0,8.181818C0,3.663125,3.402621,0,7.599966,0h174.800068C186.597379,0,190,3.663125,190,8.181818L190,270" transform="translate(220 10)" fill="#515f7c" stroke-width="0"/></g><g transform="translate(-5-5)"><ellipse rx="13" ry="13" transform="translate(320 339)" fill="#475777" stroke-width="0"/><ellipse rx="9" ry="9" transform="translate(320 339)" fill="#389c4c" stroke-width="0"/></g><g><g transform="translate(.0009 0)"><rect width="190" height="46" rx="0" ry="0" transform="translate(220 220)" fill="#3e4b65" stroke-width="0"/><rect width="174" height="30" rx="0" ry="0" transform="translate(228 228)" fill="#515f7c" stroke-width="0"/></g><g transform="translate(2 0)"><line x1="0" y1="-9" x2="0" y2="7" transform="translate(238 244)" paint-order="stroke fill markers" fill="none" stroke="#374561" stroke-width="6" stroke-linecap="round"/><line x1="0" y1="-9" x2="0" y2="7" transform="translate(250 244)" paint-order="stroke fill markers" fill="none" stroke="#374561" stroke-width="6" stroke-linecap="round"/><line x1="0" y1="-9" x2="0" y2="7" transform="translate(262 244)" paint-order="stroke fill markers" fill="none" stroke="#374561" stroke-width="6" stroke-linecap="round"/></g><g transform="translate(-2 0)"><line x1="-55.220259" y1="0" x2="44.779741" y2="0" transform="translate(337.220259 243)" paint-order="stroke fill markers" fill="none" stroke="#374561" stroke-width="5" stroke-linecap="round"/><g transform="translate(-6 0)"><ellipse rx="9" ry="9" transform="translate(395 243)" fill="#374561" stroke-width="0"/><ellipse rx="5" ry="5" transform="translate(395 243)" fill="#d1ab14" stroke-width="0"/></g><g transform="translate(-10 0)"><ellipse rx="9" ry="9" transform="translate(379 243)" fill="#374561" stroke-width="0"/><ellipse rx="5" ry="5" transform="translate(379 243)" fill="#389c4c" stroke-width="0"/></g></g></g><g transform="translate(-.0009-54)"><g transform="translate(.0009 0)"><rect width="190" height="46" rx="0" ry="0" transform="translate(220 220)" fill="#3e4b65" stroke-width="0"/><rect width="174" height="30" rx="0" ry="0" transform="translate(228 228)" fill="#515f7c" stroke-width="0"/></g><g transform="translate(2 0)"><line x1="0" y1="-9" x2="0" y2="7" transform="translate(238 244)" paint-order="stroke fill markers" fill="none" stroke="#374561" stroke-width="6" stroke-linecap="round"/><line x1="0" y1="-9" x2="0" y2="7" transform="translate(250 244)" paint-order="stroke fill markers" fill="none" stroke="#374561" stroke-width="6" stroke-linecap="round"/><line x1="0" y1="-9" x2="0" y2="7" transform="translate(262 244)" paint-order="stroke fill markers" fill="none" stroke="#374561" stroke-width="6" stroke-linecap="round"/></g><g transform="translate(-2 0)"><line x1="-55.220259" y1="0" x2="44.779741" y2="0" transform="translate(337.220259 243)" paint-order="stroke fill markers" fill="none" stroke="#374561" stroke-width="5" stroke-linecap="round"/><g transform="translate(-6 0)"><ellipse rx="9" ry="9" transform="translate(395 243)" fill="#374561" stroke-width="0"/><ellipse rx="5" ry="5" transform="translate(395 243)" fill="#d1ab14" stroke-width="0"/></g><g transform="translate(-10 0)"><ellipse rx="9" ry="9" transform="translate(379 243)" fill="#374561" stroke-width="0"/><ellipse rx="5" ry="5" transform="translate(379 243)" fill="#389c4c" stroke-width="0"/></g></g></g><g transform="translate(0-108)"><g transform="translate(.0009 0)"><rect width="190" height="46" rx="0" ry="0" transform="translate(220 220)" fill="#3e4b65" stroke-width="0"/><rect width="174" height="30" rx="0" ry="0" transform="translate(228 228)" fill="#515f7c" stroke-width="0"/></g><g transform="translate(2 0)"><line x1="0" y1="-9" x2="0" y2="7" transform="translate(238 244)" paint-order="stroke fill markers" fill="none" stroke="#374561" stroke-width="6" stroke-linecap="round"/><line x1="0" y1="-9" x2="0" y2="7" transform="translate(250 244)" paint-order="stroke fill markers" fill="none" stroke="#374561" stroke-width="6" stroke-linecap="round"/><line x1="0" y1="-9" x2="0" y2="7" transform="translate(262 244)" paint-order="stroke fill markers" fill="none" stroke="#374561" stroke-width="6" stroke-linecap="round"/></g><g transform="translate(-2 0)"><line x1="-55.220259" y1="0" x2="44.779741" y2="0" transform="translate(337.220259 243)" paint-order="stroke fill markers" fill="none" stroke="#374561" stroke-width="5" stroke-linecap="round"/><g transform="translate(-6 0)"><ellipse rx="9" ry="9" transform="translate(395 243)" fill="#374561" stroke-width="0"/><ellipse rx="5" ry="5" transform="translate(395 243)" fill="#d1ab14" stroke-width="0"/></g><g transform="translate(-10 0)"><ellipse rx="9" ry="9" transform="translate(379 243)" fill="#374561" stroke-width="0"/><ellipse rx="5" ry="5" transform="translate(379 243)" fill="#389c4c" stroke-width="0"/></g></g></g><g transform="translate(0-162)"><g transform="translate(.0009 0)"><rect width="190" height="46" rx="0" ry="0" transform="translate(220 220)" fill="#3e4b65" stroke-width="0"/><rect width="174" height="30" rx="0" ry="0" transform="translate(228 228)" fill="#515f7c" stroke-width="0"/></g><g transform="translate(2 0)"><line x1="0" y1="-9" x2="0" y2="7" transform="translate(238 244)" paint-order="stroke fill markers" fill="none" stroke="#374561" stroke-width="6" stroke-linecap="round"/><line x1="0" y1="-9" x2="0" y2="7" transform="translate(250 244)" paint-order="stroke fill markers" fill="none" stroke="#374561" stroke-width="6" stroke-linecap="round"/><line x1="0" y1="-9" x2="0" y2="7" transform="translate(262 244)" paint-order="stroke fill markers" fill="none" stroke="#374561" stroke-width="6" stroke-linecap="round"/></g><g transform="translate(-2 0)"><line x1="-55.220259" y1="0" x2="44.779741" y2="0" transform="translate(337.220259 243)" paint-order="stroke fill markers" fill="none" stroke="#374561" stroke-width="5" stroke-linecap="round"/><g transform="translate(-6 0)"><ellipse rx="9" ry="9" transform="translate(395 243)" fill="#374561" stroke-width="0"/><ellipse rx="5" ry="5" transform="translate(395 243)" fill="#d1ab14" stroke-width="0"/></g><g transform="translate(-10 0)"><ellipse rx="9" ry="9" transform="translate(379 243)" fill="#374561" stroke-width="0"/><ellipse rx="5" ry="5" transform="translate(379 243)" fill="#389c4c" stroke-width="0"/></g></g></g><g transform="translate(0-216)"><g transform="translate(.0009 0)"><path d="M0,46L0,8C0,3.581722,3.402636,0,7.6,0h174.8c4.197364,0,7.6,3.581722,7.6,8v38" transform="translate(220 220)" fill="#3e4b65" stroke-width="0"/><rect width="174" height="30" rx="0" ry="0" transform="translate(228 228)" fill="#515f7c" stroke-width="0"/></g><g transform="translate(2 0)"><line x1="0" y1="-9" x2="0" y2="7" transform="translate(238 244)" paint-order="stroke fill markers" fill="none" stroke="#374561" stroke-width="6" stroke-linecap="round"/><line x1="0" y1="-9" x2="0" y2="7" transform="translate(250 244)" paint-order="stroke fill markers" fill="none" stroke="#374561" stroke-width="6" stroke-linecap="round"/><line x1="0" y1="-9" x2="0" y2="7" transform="translate(262 244)" paint-order="stroke fill markers" fill="none" stroke="#374561" stroke-width="6" stroke-linecap="round"/></g><g transform="translate(-2 0)"><line x1="-55.220259" y1="0" x2="44.779741" y2="0" transform="translate(337.220259 243)" paint-order="stroke fill markers" fill="none" stroke="#374561" stroke-width="5" stroke-linecap="round"/><g transform="translate(-6 0)"><ellipse rx="9" ry="9" transform="translate(395 243)" fill="#374561" stroke-width="0"/><ellipse rx="5" ry="5" transform="translate(395 243)" fill="#d1ab14" stroke-width="0"/></g><g transform="translate(-10 0)"><ellipse rx="9" ry="9" transform="translate(379 243)" fill="#374561" stroke-width="0"/><ellipse rx="5" ry="5" transform="translate(379 243)" fill="#389c4c" stroke-width="0"/></g></g></g></g><g transform="matrix(.92 0 0 0.92-202.4 11.92)"><g transform="translate(0-6)"><rect width="190" height="390" rx="8" ry="8" transform="translate(220 10)" fill="#3e4b65" stroke-width="0"/><path d="M407.400002,10C411.597368,10,415,13.675976,415,18.210526v373.578948C415,396.324024,411.597368,400,407.400002,400L320,400v-390h87.400002Z" transform="matrix(-1 0 0-1 635 410)" fill="#3a4761" stroke-width="0"/><path d="M0,270L0,8.181818C0,3.663125,3.402621,0,7.599966,0h174.800068C186.597379,0,190,3.663125,190,8.181818L190,270" transform="translate(220 10)" fill="#515f7c" stroke-width="0"/></g><g transform="translate(-5-5)"><ellipse rx="13" ry="13" transform="translate(320 339)" fill="#475777" stroke-width="0"/><ellipse rx="9" ry="9" transform="translate(320 339)" fill="#389c4c" stroke-width="0"/></g><g><g transform="translate(.0009 0)"><rect width="190" height="46" rx="0" ry="0" transform="translate(220 220)" fill="#3e4b65" stroke-width="0"/><rect width="174" height="30" rx="0" ry="0" transform="translate(228 228)" fill="#515f7c" stroke-width="0"/></g><g transform="translate(2 0)"><line x1="0" y1="-9" x2="0" y2="7" transform="translate(238 244)" paint-order="stroke fill markers" fill="none" stroke="#374561" stroke-width="6" stroke-linecap="round"/><line x1="0" y1="-9" x2="0" y2="7" transform="translate(250 244)" paint-order="stroke fill markers" fill="none" stroke="#374561" stroke-width="6" stroke-linecap="round"/><line x1="0" y1="-9" x2="0" y2="7" transform="translate(262 244)" paint-order="stroke fill markers" fill="none" stroke="#374561" stroke-width="6" stroke-linecap="round"/></g><g transform="translate(-2 0)"><line x1="-55.220259" y1="0" x2="44.779741" y2="0" transform="translate(337.220259 243)" paint-order="stroke fill markers" fill="none" stroke="#374561" stroke-width="5" stroke-linecap="round"/><g transform="translate(-6 0)"><ellipse rx="9" ry="9" transform="translate(395 243)" fill="#374561" stroke-width="0"/><ellipse rx="5" ry="5" transform="translate(395 243)" fill="#d1ab14" stroke-width="0"/></g><g transform="translate(-10 0)"><ellipse rx="9" ry="9" transform="translate(379 243)" fill="#374561" stroke-width="0"/><ellipse rx="5" ry="5" transform="translate(379 243)" fill="#389c4c" stroke-width="0"/></g></g></g><g transform="translate(-.0009-54)"><g transform="translate(.0009 0)"><rect width="190" height="46" rx="0" ry="0" transform="translate(220 220)" fill="#3e4b65" stroke-width="0"/><rect width="174" height="30" rx="0" ry="0" transform="translate(228 228)" fill="#515f7c" stroke-width="0"/></g><g transform="translate(2 0)"><line x1="0" y1="-9" x2="0" y2="7" transform="translate(238 244)" paint-order="stroke fill markers" fill="none" stroke="#374561" stroke-width="6" stroke-linecap="round"/><line x1="0" y1="-9" x2="0" y2="7" transform="translate(250 244)" paint-order="stroke fill markers" fill="none" stroke="#374561" stroke-width="6" stroke-linecap="round"/><line x1="0" y1="-9" x2="0" y2="7" transform="translate(262 244)" paint-order="stroke fill markers" fill="none" stroke="#374561" stroke-width="6" stroke-linecap="round"/></g><g transform="translate(-2 0)"><line x1="-55.220259" y1="0" x2="44.779741" y2="0" transform="translate(337.220259 243)" paint-order="stroke fill markers" fill="none" stroke="#374561" stroke-width="5" stroke-linecap="round"/><g transform="translate(-6 0)"><ellipse rx="9" ry="9" transform="translate(395 243)" fill="#374561" stroke-width="0"/><ellipse rx="5" ry="5" transform="translate(395 243)" fill="#d1ab14" stroke-width="0"/></g><g transform="translate(-10 0)"><ellipse rx="9" ry="9" transform="translate(379 243)" fill="#374561" stroke-width="0"/><ellipse rx="5" ry="5" transform="translate(379 243)" fill="#389c4c" stroke-width="0"/></g></g></g><g transform="translate(0-108)"><g transform="translate(.0009 0)"><rect width="190" height="46" rx="0" ry="0" transform="translate(220 220)" fill="#3e4b65" stroke-width="0"/><rect width="174" height="30" rx="0" ry="0" transform="translate(228 228)" fill="#515f7c" stroke-width="0"/></g><g transform="translate(2 0)"><line x1="0" y1="-9" x2="0" y2="7" transform="translate(238 244)" paint-order="stroke fill markers" fill="none" stroke="#374561" stroke-width="6" stroke-linecap="round"/><line x1="0" y1="-9" x2="0" y2="7" transform="translate(250 244)" paint-order="stroke fill markers" fill="none" stroke="#374561" stroke-width="6" stroke-linecap="round"/><line x1="0" y1="-9" x2="0" y2="7" transform="translate(262 244)" paint-order="stroke fill markers" fill="none" stroke="#374561" stroke-width="6" stroke-linecap="round"/></g><g transform="translate(-2 0)"><line x1="-55.220259" y1="0" x2="44.779741" y2="0" transform="translate(337.220259 243)" paint-order="stroke fill markers" fill="none" stroke="#374561" stroke-width="5" stroke-linecap="round"/><g transform="translate(-6 0)"><ellipse rx="9" ry="9" transform="translate(395 243)" fill="#374561" stroke-width="0"/><ellipse rx="5" ry="5" transform="translate(395 243)" fill="#d1ab14" stroke-width="0"/></g><g transform="translate(-10 0)"><ellipse rx="9" ry="9" transform="translate(379 243)" fill="#374561" stroke-width="0"/><ellipse rx="5" ry="5" transform="translate(379 243)" fill="#389c4c" stroke-width="0"/></g></g></g><g transform="translate(0-162)"><g transform="translate(.0009 0)"><rect width="190" height="46" rx="0" ry="0" transform="translate(220 220)" fill="#3e4b65" stroke-width="0"/><rect width="174" height="30" rx="0" ry="0" transform="translate(228 228)" fill="#515f7c" stroke-width="0"/></g><g transform="translate(2 0)"><line x1="0" y1="-9" x2="0" y2="7" transform="translate(238 244)" paint-order="stroke fill markers" fill="none" stroke="#374561" stroke-width="6" stroke-linecap="round"/><line x1="0" y1="-9" x2="0" y2="7" transform="translate(250 244)" paint-order="stroke fill markers" fill="none" stroke="#374561" stroke-width="6" stroke-linecap="round"/><line x1="0" y1="-9" x2="0" y2="7" transform="translate(262 244)" paint-order="stroke fill markers" fill="none" stroke="#374561" stroke-width="6" stroke-linecap="round"/></g><g transform="translate(-2 0)"><line x1="-55.220259" y1="0" x2="44.779741" y2="0" transform="translate(337.220259 243)" paint-order="stroke fill markers" fill="none" stroke="#374561" stroke-width="5" stroke-linecap="round"/><g transform="translate(-6 0)"><ellipse rx="9" ry="9" transform="translate(395 243)" fill="#374561" stroke-width="0"/><ellipse rx="5" ry="5" transform="translate(395 243)" fill="#d1ab14" stroke-width="0"/></g><g transform="translate(-10 0)"><ellipse rx="9" ry="9" transform="translate(379 243)" fill="#374561" stroke-width="0"/><ellipse rx="5" ry="5" transform="translate(379 243)" fill="#389c4c" stroke-width="0"/></g></g></g><g transform="translate(0-216)"><g transform="translate(.0009 0)"><path d="M0,46L0,8C0,3.581722,3.402636,0,7.6,0h174.8c4.197364,0,7.6,3.581722,7.6,8v38" transform="translate(220 220)" fill="#3e4b65" stroke-width="0"/><rect width="174" height="30" rx="0" ry="0" transform="translate(228 228)" fill="#515f7c" stroke-width="0"/></g><g transform="translate(2 0)"><line x1="0" y1="-9" x2="0" y2="7" transform="translate(238 244)" paint-order="stroke fill markers" fill="none" stroke="#374561" stroke-width="6" stroke-linecap="round"/><line x1="0" y1="-9" x2="0" y2="7" transform="translate(250 244)" paint-order="stroke fill markers" fill="none" stroke="#374561" stroke-width="6" stroke-linecap="round"/><line x1="0" y1="-9" x2="0" y2="7" transform="translate(262 244)" paint-order="stroke fill markers" fill="none" stroke="#374561" stroke-width="6" stroke-linecap="round"/></g><g transform="translate(-2 0)"><line x1="-55.220259" y1="0" x2="44.779741" y2="0" transform="translate(337.220259 243)" paint-order="stroke fill markers" fill="none" stroke="#374561" stroke-width="5" stroke-linecap="round"/><g transform="translate(-6 0)"><ellipse rx="9" ry="9" transform="translate(395 243)" fill="#374561" stroke-width="0"/><ellipse rx="5" ry="5" transform="translate(395 243)" fill="#d1ab14" stroke-width="0"/></g><g transform="translate(-10 0)"><ellipse rx="9" ry="9" transform="translate(379 243)" fill="#374561" stroke-width="0"/><ellipse rx="5" ry="5" transform="translate(379 243)" fill="#389c4c" stroke-width="0"/></g></g></g></g><rect width="220" height="358.8" rx="0" ry="0" transform="translate(137.9 15.6)" fill-opacity="0.35" stroke-width="0"/><g transform="translate(-67.6-4)"><g transform="translate(0-6)"><rect width="190" height="390" rx="8" ry="8" transform="translate(220 10)" fill="#3e4b65" stroke-width="0"/><path d="M407.400002,10C411.597368,10,415,13.675976,415,18.210526v373.578948C415,396.324024,411.597368,400,407.400002,400L320,400v-390h87.400002Z" transform="translate(-5 0)" fill="#3a4761" stroke-width="0"/><path d="M0,270L0,8.181818C0,3.663125,3.402621,0,7.599966,0h174.800068C186.597379,0,190,3.663125,190,8.181818L190,270" transform="translate(220 10)" fill="#515f7c" stroke-width="0"/></g><g transform="translate(-5-5)"><ellipse rx="13" ry="13" transform="translate(320 339)" fill="#475777" stroke-width="0"/><ellipse rx="9" ry="9" transform="translate(320 339)" fill="#389c4c" stroke-width="0"/></g><g><g transform="translate(.0009 0)"><rect width="190" height="46" rx="0" ry="0" transform="translate(220 220)" fill="#3e4b65" stroke-width="0"/><rect width="174" height="30" rx="0" ry="0" transform="translate(228 228)" fill="#515f7c" stroke-width="0"/></g><g transform="translate(2 0)"><line x1="0" y1="-9" x2="0" y2="7" transform="translate(238 244)" paint-order="stroke fill markers" fill="none" stroke="#374561" stroke-width="6" stroke-linecap="round"/><line x1="0" y1="-9" x2="0" y2="7" transform="translate(250 244)" paint-order="stroke fill markers" fill="none" stroke="#374561" stroke-width="6" stroke-linecap="round"/><line x1="0" y1="-9" x2="0" y2="7" transform="translate(262 244)" paint-order="stroke fill markers" fill="none" stroke="#374561" stroke-width="6" stroke-linecap="round"/></g><g transform="translate(-2 0)"><line x1="-55.220259" y1="0" x2="44.779741" y2="0" transform="translate(337.220259 243)" paint-order="stroke fill markers" fill="none" stroke="#374561" stroke-width="5" stroke-linecap="round"/><g transform="translate(-6 0)"><ellipse rx="9" ry="9" transform="translate(395 243)" fill="#374561" stroke-width="0"/><ellipse rx="5" ry="5" transform="translate(395 243)" fill="#d1ab14" stroke-width="0"/></g><g transform="translate(-10 0)"><ellipse rx="9" ry="9" transform="translate(379 243)" fill="#374561" stroke-width="0"/><ellipse rx="5" ry="5" transform="translate(379 243)" fill="#389c4c" stroke-width="0"/></g></g></g><g transform="translate(-.0009-54)"><g transform="translate(.0009 0)"><rect width="190" height="46" rx="0" ry="0" transform="translate(220 220)" fill="#3e4b65" stroke-width="0"/><rect width="174" height="30" rx="0" ry="0" transform="translate(228 228)" fill="#515f7c" stroke-width="0"/></g><g transform="translate(2 0)"><line x1="0" y1="-9" x2="0" y2="7" transform="translate(238 244)" paint-order="stroke fill markers" fill="none" stroke="#374561" stroke-width="6" stroke-linecap="round"/><line x1="0" y1="-9" x2="0" y2="7" transform="translate(250 244)" paint-order="stroke fill markers" fill="none" stroke="#374561" stroke-width="6" stroke-linecap="round"/><line x1="0" y1="-9" x2="0" y2="7" transform="translate(262 244)" paint-order="stroke fill markers" fill="none" stroke="#374561" stroke-width="6" stroke-linecap="round"/></g><g transform="translate(-2 0)"><line x1="-55.220259" y1="0" x2="44.779741" y2="0" transform="translate(337.220259 243)" paint-order="stroke fill markers" fill="none" stroke="#374561" stroke-width="5" stroke-linecap="round"/><g transform="translate(-6 0)"><ellipse rx="9" ry="9" transform="translate(395 243)" fill="#374561" stroke-width="0"/><ellipse rx="5" ry="5" transform="translate(395 243)" fill="#d1ab14" stroke-width="0"/></g><g transform="translate(-10 0)"><ellipse rx="9" ry="9" transform="translate(379 243)" fill="#374561" stroke-width="0"/><ellipse rx="5" ry="5" transform="translate(379 243)" fill="#389c4c" stroke-width="0"/></g></g></g><g transform="translate(0-108)"><g transform="translate(.0009 0)"><rect width="190" height="46" rx="0" ry="0" transform="translate(220 220)" fill="#3e4b65" stroke-width="0"/><rect width="174" height="30" rx="0" ry="0" transform="translate(228 228)" fill="#515f7c" stroke-width="0"/></g><g transform="translate(2 0)"><line x1="0" y1="-9" x2="0" y2="7" transform="translate(238 244)" paint-order="stroke fill markers" fill="none" stroke="#374561" stroke-width="6" stroke-linecap="round"/><line x1="0" y1="-9" x2="0" y2="7" transform="translate(250 244)" paint-order="stroke fill markers" fill="none" stroke="#374561" stroke-width="6" stroke-linecap="round"/><line x1="0" y1="-9" x2="0" y2="7" transform="translate(262 244)" paint-order="stroke fill markers" fill="none" stroke="#374561" stroke-width="6" stroke-linecap="round"/></g><g transform="translate(-2 0)"><line x1="-55.220259" y1="0" x2="44.779741" y2="0" transform="translate(337.220259 243)" paint-order="stroke fill markers" fill="none" stroke="#374561" stroke-width="5" stroke-linecap="round"/><g transform="translate(-6 0)"><ellipse rx="9" ry="9" transform="translate(395 243)" fill="#374561" stroke-width="0"/><ellipse rx="5" ry="5" transform="translate(395 243)" fill="#d1ab14" stroke-width="0"/></g><g transform="translate(-10 0)"><ellipse rx="9" ry="9" transform="translate(379 243)" fill="#374561" stroke-width="0"/><ellipse rx="5" ry="5" transform="translate(379 243)" fill="#389c4c" stroke-width="0"/></g></g></g><g transform="translate(0-162)"><g transform="translate(.0009 0)"><rect width="190" height="46" rx="0" ry="0" transform="translate(220 220)" fill="#3e4b65" stroke-width="0"/><rect width="174" height="30" rx="0" ry="0" transform="translate(228 228)" fill="#515f7c" stroke-width="0"/></g><g transform="translate(2 0)"><line x1="0" y1="-9" x2="0" y2="7" transform="translate(238 244)" paint-order="stroke fill markers" fill="none" stroke="#374561" stroke-width="6" stroke-linecap="round"/><line x1="0" y1="-9" x2="0" y2="7" transform="translate(250 244)" paint-order="stroke fill markers" fill="none" stroke="#374561" stroke-width="6" stroke-linecap="round"/><line x1="0" y1="-9" x2="0" y2="7" transform="translate(262 244)" paint-order="stroke fill markers" fill="none" stroke="#374561" stroke-width="6" stroke-linecap="round"/></g><g transform="translate(-2 0)"><line x1="-55.220259" y1="0" x2="44.779741" y2="0" transform="translate(337.220259 243)" paint-order="stroke fill markers" fill="none" stroke="#374561" stroke-width="5" stroke-linecap="round"/><g transform="translate(-6 0)"><ellipse rx="9" ry="9" transform="translate(395 243)" fill="#374561" stroke-width="0"/><ellipse rx="5" ry="5" transform="translate(395 243)" fill="#d1ab14" stroke-width="0"/></g><g transform="translate(-10 0)"><ellipse rx="9" ry="9" transform="translate(379 243)" fill="#374561" stroke-width="0"/><ellipse rx="5" ry="5" transform="translate(379 243)" fill="#389c4c" stroke-width="0"/></g></g></g><g transform="translate(0-216)"><g transform="translate(.0009 0)"><path d="M0,46L0,8C0,3.581722,3.402636,0,7.6,0h174.8c4.197364,0,7.6,3.581722,7.6,8v38" transform="translate(220 220)" fill="#3e4b65" stroke-width="0"/><rect width="174" height="30" rx="0" ry="0" transform="translate(228 228)" fill="#515f7c" stroke-width="0"/></g><g transform="translate(2 0)"><line x1="0" y1="-9" x2="0" y2="7" transform="translate(238 244)" paint-order="stroke fill markers" fill="none" stroke="#374561" stroke-width="6" stroke-linecap="round"/><line x1="0" y1="-9" x2="0" y2="7" transform="translate(250 244)" paint-order="stroke fill markers" fill="none" stroke="#374561" stroke-width="6" stroke-linecap="round"/><line x1="0" y1="-9" x2="0" y2="7" transform="translate(262 244)" paint-order="stroke fill markers" fill="none" stroke="#374561" stroke-width="6" stroke-linecap="round"/></g><g transform="translate(-2 0)"><line x1="-55.220259" y1="0" x2="44.779741" y2="0" transform="translate(337.220259 243)" paint-order="stroke fill markers" fill="none" stroke="#374561" stroke-width="5" stroke-linecap="round"/><g transform="translate(-6 0)"><ellipse rx="9" ry="9" transform="translate(395 243)" fill="#374561" stroke-width="0"/><ellipse rx="5" ry="5" transform="translate(395 243)" fill="#d1ab14" stroke-width="0"/></g><g transform="translate(-10 0)"><ellipse rx="9" ry="9" transform="translate(379 243)" fill="#374561" stroke-width="0"/><ellipse rx="5" ry="5" transform="translate(379 243)" fill="#389c4c" stroke-width="0"/></g></g></g></g></g></svg>