<?xml version="1.0" encoding="UTF-8"?>
<svg xmlns="http://www.w3.org/2000/svg" width="512" height="512" viewBox="0 0 135.47 135.47"><rect width="135.47" height="135.47" ry=".19" fill="#ff9e2e"/><path d="M5.292 5.292h124.88v124.88H5.292V5.292z" fill="none" stroke="#fff" stroke-width="4.233"/><path d="M35.726 73.065c0 2.237-.794 3.98-2.381 5.23-1.587 1.238-3.08 1.856-5.908 1.856h-11.53v-25.15h10.142c5.747 0 8.727 2.035 8.727 6.105 0 1.487-.326 2.737-1.137 3.748s-1.535 1.69-3.018 2.035a6.38 6.38 0 0 1 3.867 2.017c.975 1.174 1.238 2.481 1.238 4.159zm-4.339-11.549c0-1.357-.425-2.326-1.329-2.909s-2.002-.875-3.717-.875h-7.114v7.961h7.008c1.773 0 3.147-.339 4.016-1.017.881-.69 1.136-1.743 1.136-3.159zm1.117 11.281c0-2.963-2.107-4.445-6.163-4.445h-7.114v9.068l7.427.026c2.028.007 3.584-.387 4.511-1.16s1.338-1.954 1.338-3.489zm24.707 7.354l-2.798-7.354H43.254l-2.816 7.354h-3.441L46.991 55h3.772L60.6 80.151zm-8.378-22.58l-.156.5q-.435 1.481-1.286 3.802l-3.129 8.264h9.16l-3.146-8.3q-.487-1.232-.973-2.785zm14.263 22.58V55h3.32v22.366h13.381v2.785zm19.63 0V55h17.364v2.785H86.046v8.068h13v2.749h-13v8.764h14.043v2.785zm24.834-22.366v8.057h11.544v2.794H107.56v11.515h-3.32V55h16.578v2.785z" fill="#fff"/></svg>
